<?xml version="1.0" encoding="utf-8"?>
<!-- Generator: Adobe Illustrator 19.0.0, SVG Export Plug-In . SVG Version: 6.00 Build 0)  -->
<!DOCTYPE svg PUBLIC "-//W3C//DTD SVG 1.1//EN" "http://www.w3.org/Graphics/SVG/1.1/DTD/svg11.dtd">
<svg version="1.1" id="Layer_1" xmlns="http://www.w3.org/2000/svg" xmlns:xlink="http://www.w3.org/1999/xlink" x="0px" y="0px"
	 viewBox="0 0 160 160" style="enable-background:new 0 0 160 160;" xml:space="preserve">
<style type="text/css">
	.st0{fill:#3D3560;}
</style>
<path id="XMLID_34_" class="st0" d="M80,0C35.8,0,0,35.8,0,80c0,44.2,35.8,80,80,80c44.2,0,80-35.8,80-80C160,35.8,124.2,0,80,0z
	 M132,117.3H78.4l34.8-63.6h-8.5c-17.5,0-22.5,14.7-22.5,14.7s-2.3,4.9-3.3,7.2L60.1,117L36.8,68.5c-4.9-10.3-8.4-15-14.7-15v-0.5
	h37.2l0,0.5c-8.2,0-7.4,6.8-4,14.2l13.2,29.2l9.8-21.7c4-8.9,8.8-21.7-5.9-21.7l-0.1-0.6h11.3h15.1h35.6l-34.9,63.7h6.8
	c18.4,0,27.1-11.9,29.8-28.1h0.2L132,117.3z"/>
</svg>
